<?xml version="1.0" standalone="no"?>
<!DOCTYPE svg PUBLIC "-//W3C//DTD SVG 20010904//EN"
 "http://www.w3.org/TR/2001/REC-SVG-20010904/DTD/svg10.dtd">
<svg version="1.0" xmlns="http://www.w3.org/2000/svg"
 width="512.000000pt" height="512.000000pt" viewBox="0 0 512.000000 512.000000"
 preserveAspectRatio="xMidYMid meet">

<g transform="translate(0.000000,512.000000) scale(0.100000,-0.100000)"
fill="#000000" stroke="none">
<path d="M0 2560 l0 -2560 2560 0 2560 0 0 2560 0 2560 -2560 0 -2560 0 0
-2560z m2918 1192 l357 356 290 -115 c160 -63 295 -120 302 -126 6 -7 63 -142
127 -302 l114 -290 -356 -357 -357 -358 357 -357 356 -358 -114 -290 c-64
-159 -121 -295 -127 -302 -7 -7 -142 -64 -302 -127 l-290 -115 -357 357 -358
357 -357 -357 -358 -356 -290 114 c-159 63 -295 120 -302 127 -7 7 -64 143
-127 302 l-114 290 356 358 357 357 -357 358 -356 357 114 290 c63 160 120
295 127 302 7 7 143 64 302 127 l290 114 358 -356 357 -357 358 357z"/>
<path d="M2446 3112 c-60 -152 -114 -286 -121 -298 -9 -14 -104 -56 -304 -135
-160 -63 -291 -116 -291 -119 0 -3 125 -54 278 -114 152 -60 286 -114 298
-121 14 -9 56 -104 135 -304 63 -160 116 -291 119 -291 3 0 56 131 119 291 79
200 121 295 135 304 12 7 146 62 298 121 153 60 278 111 278 114 0 3 -125 54
-278 114 -152 59 -286 114 -298 121 -14 9 -56 104 -135 304 -63 160 -116 291
-119 291 -3 0 -54 -125 -114 -278z"/>
</g>
</svg>
